<svg width="461" height="258" viewBox="0 0 461 258" fill="none" xmlns="http://www.w3.org/2000/svg">
<path d="M28.5 10.8C35.9 10.8 42.3667 12.2667 47.9 15.2C53.4333 18.1333 57.7 22.2667 60.7 27.6C63.7667 32.8667 65.3 38.9667 65.3 45.9C65.3 52.7667 63.7667 58.8667 60.7 64.2C57.7 69.5333 53.4 73.6667 47.8 76.6C42.2667 79.5333 35.8333 81 28.5 81H2.2V10.8H28.5ZM27.4 66.2C33.8667 66.2 38.9 64.4333 42.5 60.9C46.1 57.3667 47.9 52.3667 47.9 45.9C47.9 39.4333 46.1 34.4 42.5 30.8C38.9 27.2 33.8667 25.4 27.4 25.4H19.3V66.2H27.4ZM100.256 81.8C94.7896 81.8 89.8563 80.6333 85.4563 78.3C81.1229 75.9667 77.6896 72.6333 75.1563 68.3C72.6896 63.9667 71.4563 58.9 71.4563 53.1C71.4563 47.3667 72.7229 42.3333 75.2562 38C77.7896 33.6 81.2563 30.2333 85.6563 27.9C90.0563 25.5667 94.9896 24.4 100.456 24.4C105.923 24.4 110.856 25.5667 115.256 27.9C119.656 30.2333 123.123 33.6 125.656 38C128.19 42.3333 129.456 47.3667 129.456 53.1C129.456 58.8333 128.156 63.9 125.556 68.3C123.023 72.6333 119.523 75.9667 115.056 78.3C110.656 80.6333 105.723 81.8 100.256 81.8ZM100.256 67C103.523 67 106.29 65.8 108.556 63.4C110.89 61 112.056 57.5667 112.056 53.1C112.056 48.6333 110.923 45.2 108.656 42.8C106.456 40.4 103.723 39.2 100.456 39.2C97.1229 39.2 94.3563 40.4 92.1563 42.8C89.9563 45.1333 88.8563 48.5667 88.8563 53.1C88.8563 57.5667 89.9229 61 92.0563 63.4C94.2563 65.8 96.9896 67 100.256 67ZM155.628 34.5C157.628 31.4333 160.128 29.0333 163.128 27.3C166.128 25.5 169.461 24.6 173.128 24.6V42.7H168.428C164.161 42.7 160.961 43.6333 158.828 45.5C156.695 47.3 155.628 50.5 155.628 55.1V81H138.528V25.2H155.628V34.5ZM177.902 53C177.902 47.2667 178.968 42.2333 181.102 37.9C183.302 33.5667 186.268 30.2333 190.002 27.9C193.735 25.5667 197.902 24.4 202.502 24.4C206.435 24.4 209.868 25.2 212.802 26.8C215.802 28.4 218.102 30.5 219.702 33.1V25.2H236.802V81H219.702V73.1C218.035 75.7 215.702 77.8 212.702 79.4C209.768 81 206.335 81.8 202.402 81.8C197.868 81.8 193.735 80.6333 190.002 78.3C186.268 75.9 183.302 72.5333 181.102 68.2C178.968 63.8 177.902 58.7333 177.902 53ZM219.702 53.1C219.702 48.8333 218.502 45.4667 216.102 43C213.768 40.5333 210.902 39.3 207.502 39.3C204.102 39.3 201.202 40.5333 198.802 43C196.468 45.4 195.302 48.7333 195.302 53C195.302 57.2667 196.468 60.6667 198.802 63.2C201.202 65.6667 204.102 66.9 207.502 66.9C210.902 66.9 213.768 65.6667 216.102 63.2C218.502 60.7333 219.702 57.3667 219.702 53.1ZM306.173 25.2L271.173 107.5H252.773L265.573 79.1L242.873 25.2H261.973L274.873 60.1L287.673 25.2H306.173ZM308.956 53C308.956 47.2667 310.023 42.2333 312.156 37.9C314.356 33.5667 317.323 30.2333 321.056 27.9C324.79 25.5667 328.956 24.4 333.556 24.4C337.49 24.4 340.923 25.2 343.856 26.8C346.856 28.4 349.156 30.5 350.756 33.1V25.2H367.856V81H350.756V73.1C349.09 75.7 346.756 77.8 343.756 79.4C340.823 81 337.39 81.8 333.456 81.8C328.923 81.8 324.79 80.6333 321.056 78.3C317.323 75.9 314.356 72.5333 312.156 68.2C310.023 63.8 308.956 58.7333 308.956 53ZM350.756 53.1C350.756 48.8333 349.556 45.4667 347.156 43C344.823 40.5333 341.956 39.3 338.556 39.3C335.156 39.3 332.256 40.5333 329.856 43C327.523 45.4 326.356 48.7333 326.356 53C326.356 57.2667 327.523 60.6667 329.856 63.2C332.256 65.6667 335.156 66.9 338.556 66.9C341.956 66.9 344.823 65.6667 347.156 63.2C349.556 60.7333 350.756 57.3667 350.756 53.1ZM414.327 81L397.327 57.6V81H380.227V7H397.327V47.9L414.227 25.2H435.327L412.127 53.2L435.527 81H414.327ZM450.644 19.4C447.644 19.4 445.177 18.5333 443.244 16.8C441.377 15 440.444 12.8 440.444 10.2C440.444 7.53333 441.377 5.33333 443.244 3.6C445.177 1.79999 447.644 0.899994 450.644 0.899994C453.577 0.899994 455.977 1.79999 457.844 3.6C459.777 5.33333 460.744 7.53333 460.744 10.2C460.744 12.8 459.777 15 457.844 16.8C455.977 18.5333 453.577 19.4 450.644 19.4ZM459.144 25.2V81H442.044V25.2H459.144ZM27.6 231.7C22.4667 231.7 17.8667 230.867 13.8 229.2C9.73333 227.533 6.46667 225.067 4 221.8C1.6 218.533 0.333334 214.6 0.2 210H18.4C18.6667 212.6 19.5667 214.6 21.1 216C22.6333 217.333 24.6333 218 27.1 218C29.6333 218 31.6333 217.433 33.1 216.3C34.5667 215.1 35.3 213.467 35.3 211.4C35.3 209.667 34.7 208.233 33.5 207.1C32.3667 205.967 30.9333 205.033 29.2 204.3C27.5333 203.567 25.1333 202.733 22 201.8C17.4667 200.4 13.7667 199 10.9 197.6C8.03333 196.2 5.56667 194.133 3.5 191.4C1.43333 188.667 0.4 185.1 0.4 180.7C0.4 174.167 2.76667 169.067 7.5 165.4C12.2333 161.667 18.4 159.8 26 159.8C33.7333 159.8 39.9667 161.667 44.7 165.4C49.4333 169.067 51.9667 174.2 52.3 180.8H33.8C33.6667 178.533 32.8333 176.767 31.3 175.5C29.7667 174.167 27.8 173.5 25.4 173.5C23.3333 173.5 21.6667 174.067 20.4 175.2C19.1333 176.267 18.5 177.833 18.5 179.9C18.5 182.167 19.5667 183.933 21.7 185.2C23.8333 186.467 27.1667 187.833 31.7 189.3C36.2333 190.833 39.9 192.3 42.7 193.7C45.5667 195.1 48.0333 197.133 50.1 199.8C52.1667 202.467 53.2 205.9 53.2 210.1C53.2 214.1 52.1667 217.733 50.1 221C48.1 224.267 45.1667 226.867 41.3 228.8C37.4333 230.733 32.8667 231.7 27.6 231.7ZM98.0234 174.6C104.423 174.6 109.557 176.733 113.423 181C117.29 185.2 119.223 191 119.223 198.4V231H102.223V200.7C102.223 196.967 101.257 194.067 99.3234 192C97.3901 189.933 94.7901 188.9 91.5234 188.9C88.2568 188.9 85.6568 189.933 83.7234 192C81.7901 194.067 80.8234 196.967 80.8234 200.7V231H63.7234V157H80.8234V182.7C82.5568 180.233 84.9234 178.267 87.9234 176.8C90.9234 175.333 94.2901 174.6 98.0234 174.6ZM156.506 231.8C151.04 231.8 146.106 230.633 141.706 228.3C137.373 225.967 133.94 222.633 131.406 218.3C128.94 213.967 127.706 208.9 127.706 203.1C127.706 197.367 128.973 192.333 131.506 188C134.04 183.6 137.506 180.233 141.906 177.9C146.306 175.567 151.24 174.4 156.706 174.4C162.173 174.4 167.106 175.567 171.506 177.9C175.906 180.233 179.373 183.6 181.906 188C184.44 192.333 185.706 197.367 185.706 203.1C185.706 208.833 184.406 213.9 181.806 218.3C179.273 222.633 175.773 225.967 171.306 228.3C166.906 230.633 161.973 231.8 156.506 231.8ZM156.506 217C159.773 217 162.54 215.8 164.806 213.4C167.14 211 168.306 207.567 168.306 203.1C168.306 198.633 167.173 195.2 164.906 192.8C162.706 190.4 159.973 189.2 156.706 189.2C153.373 189.2 150.606 190.4 148.406 192.8C146.206 195.133 145.106 198.567 145.106 203.1C145.106 207.567 146.173 211 148.306 213.4C150.506 215.8 153.24 217 156.506 217ZM211.878 183.1C213.545 180.5 215.845 178.4 218.778 176.8C221.711 175.2 225.145 174.4 229.078 174.4C233.678 174.4 237.845 175.567 241.578 177.9C245.311 180.233 248.245 183.567 250.378 187.9C252.578 192.233 253.678 197.267 253.678 203C253.678 208.733 252.578 213.8 250.378 218.2C248.245 222.533 245.311 225.9 241.578 228.3C237.845 230.633 233.678 231.8 229.078 231.8C225.211 231.8 221.778 231 218.778 229.4C215.845 227.8 213.545 225.733 211.878 223.2V257.6H194.778V175.2H211.878V183.1ZM236.278 203C236.278 198.733 235.078 195.4 232.678 193C230.345 190.533 227.445 189.3 223.978 189.3C220.578 189.3 217.678 190.533 215.278 193C212.945 195.467 211.778 198.833 211.778 203.1C211.778 207.367 212.945 210.733 215.278 213.2C217.678 215.667 220.578 216.9 223.978 216.9C227.378 216.9 230.278 215.667 232.678 213.2C235.078 210.667 236.278 207.267 236.278 203Z" fill="#77EEE6"/>
</svg>
