<svg width="1051" height="512" viewBox="0 0 1051 512" fill="none" xmlns="http://www.w3.org/2000/svg">
<path d="M256 512C397.385 512 512 397.385 512 256C512 114.615 397.385 0 256 0C114.615 0 0 114.615 0 256C0 397.385 114.615 512 256 512Z" fill="url(#paint0_linear)"/>
<path d="M256 512C397.385 512 512 397.385 512 256C512 114.615 397.385 0 256 0C114.615 0 0 114.615 0 256C0 397.385 114.615 512 256 512Z" fill="url(#paint1_radial)"/>
<path d="M175.717 426.9C193.696 445.197 221.919 445.659 239.448 427.718C265.179 401.444 291.445 374.853 317.893 348.31C296.256 338.258 274.516 328.045 252.718 317.771C226.563 354.424 200.67 390.968 175.717 426.9Z" fill="url(#paint2_linear)"/>
<path d="M175.717 426.9C193.696 445.197 221.919 445.659 239.448 427.718C265.179 401.444 291.445 374.853 317.893 348.31C296.256 338.258 274.516 328.045 252.718 317.771C226.563 354.424 200.67 390.968 175.717 426.9Z" fill="url(#paint3_radial)"/>
<path d="M377.544 72.892C370.969 72.662 364.393 72.451 357.818 72.258C316.559 70.979 283.217 105.259 283.259 147.699C283.284 153.576 283.307 159.453 283.328 165.33C256.202 221.802 228.285 278.615 201.27 334.916C172.749 363.493 144.606 391.721 117.301 419.121C114.119 422.313 114.785 427.88 118.737 430.63C136.663 443.124 160.292 442.05 175.449 426.626C197.819 403.91 220.681 380.787 243.794 357.514C249.508 351.761 257.282 348.527 265.388 348.514C283.577 348.491 301.767 348.398 319.956 348.237C384.032 347.393 437.76 294.683 437.419 231.972C437.332 218.474 434.717 205.069 429.734 192.3C415.019 154.588 399.908 116.484 384.801 78.143C383.601 75.101 380.706 73.002 377.544 72.892V72.892Z" fill="url(#paint4_linear)"/>
<path d="M359.053 118.136C359.235 126.625 352.496 133.369 344.024 133.235C335.552 133.096 328.6 126.099 328.481 117.568C328.362 109.04 335.07 102.24 343.479 102.42C351.887 102.598 358.871 109.65 359.053 118.136V118.136Z" fill="url(#paint5_linear)"/>
<path d="M348.429 124.147C339.972 123.993 333.018 116.981 332.883 108.457C332.872 107.81 332.914 107.173 332.98 106.547C330.154 109.301 328.418 113.208 328.481 117.568C328.601 126.099 335.553 133.099 344.024 133.235C351.85 133.359 358.187 127.606 358.963 120.038C356.267 122.65 352.559 124.222 348.429 124.147Z" fill="url(#paint6_linear)"/>
<path d="M169.197 281.903C158.184 299.449 147.25 316.911 136.463 334.249C154.624 352.307 183.491 352.767 201.27 334.916C218.764 317.387 236.4 299.728 254.072 282.048C225.78 282.046 197.488 281.998 169.197 281.903V281.903Z" fill="url(#paint7_linear)"/>
<path d="M169.197 281.903C158.184 299.449 147.25 316.911 136.463 334.249C154.624 352.307 183.491 352.767 201.27 334.916C218.764 317.387 236.4 299.728 254.072 282.048C225.78 282.046 197.488 281.998 169.197 281.903V281.903Z" fill="url(#paint8_radial)"/>
<path d="M272.89 163.849C253.055 163.162 235.026 171.053 222.036 184.077C192.092 214.111 161.937 244.152 132.088 273.662C188.549 273.847 245.011 273.906 301.472 273.838C301.469 273.816 332.728 238.709 335.694 210.13C326.275 184.15 301.658 164.847 272.89 163.849V163.849Z" fill="url(#paint9_linear)"/>
<path d="M335.694 210.131C326.342 236.701 300.752 255.843 270.732 255.854C239.004 255.854 207.275 255.854 175.547 255.854C159.239 255.856 143.585 262.3 132.088 273.663C113.711 291.831 95.451 309.799 77.426 327.442C74.142 330.653 74.728 336.162 78.713 338.831C96.784 350.948 120.949 349.682 136.463 334.25C144.392 326.38 152.359 318.464 160.355 310.511C166.066 304.831 173.859 301.657 181.999 301.697C211.57 301.846 241.14 301.905 270.711 301.877C309.095 301.795 340.411 270.266 339.735 231.916C339.6 224.311 338.173 216.99 335.694 210.131Z" fill="url(#paint10_linear)"/>
<path d="M613.5 145.8C620.9 145.8 627.367 147.267 632.9 150.2C638.433 153.133 642.7 157.267 645.7 162.6C648.767 167.867 650.3 173.967 650.3 180.9C650.3 187.767 648.767 193.867 645.7 199.2C642.7 204.533 638.4 208.667 632.8 211.6C627.267 214.533 620.833 216 613.5 216H587.2V145.8H613.5ZM612.4 201.2C618.867 201.2 623.9 199.433 627.5 195.9C631.1 192.367 632.9 187.367 632.9 180.9C632.9 174.433 631.1 169.4 627.5 165.8C623.9 162.2 618.867 160.4 612.4 160.4H604.3V201.2H612.4ZM685.256 216.8C679.79 216.8 674.856 215.633 670.456 213.3C666.123 210.967 662.69 207.633 660.156 203.3C657.69 198.967 656.456 193.9 656.456 188.1C656.456 182.367 657.723 177.333 660.256 173C662.79 168.6 666.256 165.233 670.656 162.9C675.056 160.567 679.99 159.4 685.456 159.4C690.923 159.4 695.856 160.567 700.256 162.9C704.656 165.233 708.123 168.6 710.656 173C713.19 177.333 714.456 182.367 714.456 188.1C714.456 193.833 713.156 198.9 710.556 203.3C708.023 207.633 704.523 210.967 700.056 213.3C695.656 215.633 690.723 216.8 685.256 216.8ZM685.256 202C688.523 202 691.29 200.8 693.556 198.4C695.89 196 697.056 192.567 697.056 188.1C697.056 183.633 695.923 180.2 693.656 177.8C691.456 175.4 688.723 174.2 685.456 174.2C682.123 174.2 679.356 175.4 677.156 177.8C674.956 180.133 673.856 183.567 673.856 188.1C673.856 192.567 674.923 196 677.056 198.4C679.256 200.8 681.99 202 685.256 202ZM740.628 169.5C742.628 166.433 745.128 164.033 748.128 162.3C751.128 160.5 754.461 159.6 758.128 159.6V177.7H753.428C749.161 177.7 745.961 178.633 743.828 180.5C741.695 182.3 740.628 185.5 740.628 190.1V216H723.528V160.2H740.628V169.5ZM762.902 188C762.902 182.267 763.968 177.233 766.102 172.9C768.302 168.567 771.268 165.233 775.002 162.9C778.735 160.567 782.902 159.4 787.502 159.4C791.435 159.4 794.868 160.2 797.802 161.8C800.802 163.4 803.102 165.5 804.702 168.1V160.2H821.802V216H804.702V208.1C803.035 210.7 800.702 212.8 797.702 214.4C794.768 216 791.335 216.8 787.402 216.8C782.868 216.8 778.735 215.633 775.002 213.3C771.268 210.9 768.302 207.533 766.102 203.2C763.968 198.8 762.902 193.733 762.902 188ZM804.702 188.1C804.702 183.833 803.502 180.467 801.102 178C798.768 175.533 795.902 174.3 792.502 174.3C789.102 174.3 786.202 175.533 783.802 178C781.468 180.4 780.302 183.733 780.302 188C780.302 192.267 781.468 195.667 783.802 198.2C786.202 200.667 789.102 201.9 792.502 201.9C795.902 201.9 798.768 200.667 801.102 198.2C803.502 195.733 804.702 192.367 804.702 188.1ZM891.173 160.2L856.173 242.5H837.773L850.573 214.1L827.873 160.2H846.973L859.873 195.1L872.673 160.2H891.173ZM893.956 188C893.956 182.267 895.023 177.233 897.156 172.9C899.356 168.567 902.323 165.233 906.056 162.9C909.79 160.567 913.956 159.4 918.556 159.4C922.49 159.4 925.923 160.2 928.856 161.8C931.856 163.4 934.156 165.5 935.756 168.1V160.2H952.856V216H935.756V208.1C934.09 210.7 931.756 212.8 928.756 214.4C925.823 216 922.39 216.8 918.456 216.8C913.923 216.8 909.79 215.633 906.056 213.3C902.323 210.9 899.356 207.533 897.156 203.2C895.023 198.8 893.956 193.733 893.956 188ZM935.756 188.1C935.756 183.833 934.556 180.467 932.156 178C929.823 175.533 926.956 174.3 923.556 174.3C920.156 174.3 917.256 175.533 914.856 178C912.523 180.4 911.356 183.733 911.356 188C911.356 192.267 912.523 195.667 914.856 198.2C917.256 200.667 920.156 201.9 923.556 201.9C926.956 201.9 929.823 200.667 932.156 198.2C934.556 195.733 935.756 192.367 935.756 188.1ZM999.327 216L982.327 192.6V216H965.227V142H982.327V182.9L999.227 160.2H1020.33L997.127 188.2L1020.53 216H999.327ZM1035.64 154.4C1032.64 154.4 1030.18 153.533 1028.24 151.8C1026.38 150 1025.44 147.8 1025.44 145.2C1025.44 142.533 1026.38 140.333 1028.24 138.6C1030.18 136.8 1032.64 135.9 1035.64 135.9C1038.58 135.9 1040.98 136.8 1042.84 138.6C1044.78 140.333 1045.74 142.533 1045.74 145.2C1045.74 147.8 1044.78 150 1042.84 151.8C1040.98 153.533 1038.58 154.4 1035.64 154.4ZM1044.14 160.2V216H1027.04V160.2H1044.14ZM612.6 366.7C607.467 366.7 602.867 365.867 598.8 364.2C594.733 362.533 591.467 360.067 589 356.8C586.6 353.533 585.333 349.6 585.2 345H603.4C603.667 347.6 604.567 349.6 606.1 351C607.633 352.333 609.633 353 612.1 353C614.633 353 616.633 352.433 618.1 351.3C619.567 350.1 620.3 348.467 620.3 346.4C620.3 344.667 619.7 343.233 618.5 342.1C617.367 340.967 615.933 340.033 614.2 339.3C612.533 338.567 610.133 337.733 607 336.8C602.467 335.4 598.767 334 595.9 332.6C593.033 331.2 590.567 329.133 588.5 326.4C586.433 323.667 585.4 320.1 585.4 315.7C585.4 309.167 587.767 304.067 592.5 300.4C597.233 296.667 603.4 294.8 611 294.8C618.733 294.8 624.967 296.667 629.7 300.4C634.433 304.067 636.967 309.2 637.3 315.8H618.8C618.667 313.533 617.833 311.767 616.3 310.5C614.767 309.167 612.8 308.5 610.4 308.5C608.333 308.5 606.667 309.067 605.4 310.2C604.133 311.267 603.5 312.833 603.5 314.9C603.5 317.167 604.567 318.933 606.7 320.2C608.833 321.467 612.167 322.833 616.7 324.3C621.233 325.833 624.9 327.3 627.7 328.7C630.567 330.1 633.033 332.133 635.1 334.8C637.167 337.467 638.2 340.9 638.2 345.1C638.2 349.1 637.167 352.733 635.1 356C633.1 359.267 630.167 361.867 626.3 363.8C622.433 365.733 617.867 366.7 612.6 366.7ZM683.023 309.6C689.423 309.6 694.557 311.733 698.423 316C702.29 320.2 704.223 326 704.223 333.4V366H687.223V335.7C687.223 331.967 686.257 329.067 684.323 327C682.39 324.933 679.79 323.9 676.523 323.9C673.257 323.9 670.657 324.933 668.723 327C666.79 329.067 665.823 331.967 665.823 335.7V366H648.723V292H665.823V317.7C667.557 315.233 669.923 313.267 672.923 311.8C675.923 310.333 679.29 309.6 683.023 309.6ZM741.506 366.8C736.04 366.8 731.106 365.633 726.706 363.3C722.373 360.967 718.94 357.633 716.406 353.3C713.94 348.967 712.706 343.9 712.706 338.1C712.706 332.367 713.973 327.333 716.506 323C719.04 318.6 722.506 315.233 726.906 312.9C731.306 310.567 736.24 309.4 741.706 309.4C747.173 309.4 752.106 310.567 756.506 312.9C760.906 315.233 764.373 318.6 766.906 323C769.44 327.333 770.706 332.367 770.706 338.1C770.706 343.833 769.406 348.9 766.806 353.3C764.273 357.633 760.773 360.967 756.306 363.3C751.906 365.633 746.973 366.8 741.506 366.8ZM741.506 352C744.773 352 747.54 350.8 749.806 348.4C752.14 346 753.306 342.567 753.306 338.1C753.306 333.633 752.173 330.2 749.906 327.8C747.706 325.4 744.973 324.2 741.706 324.2C738.373 324.2 735.606 325.4 733.406 327.8C731.206 330.133 730.106 333.567 730.106 338.1C730.106 342.567 731.173 346 733.306 348.4C735.506 350.8 738.24 352 741.506 352ZM796.878 318.1C798.545 315.5 800.845 313.4 803.778 311.8C806.711 310.2 810.145 309.4 814.078 309.4C818.678 309.4 822.845 310.567 826.578 312.9C830.311 315.233 833.245 318.567 835.378 322.9C837.578 327.233 838.678 332.267 838.678 338C838.678 343.733 837.578 348.8 835.378 353.2C833.245 357.533 830.311 360.9 826.578 363.3C822.845 365.633 818.678 366.8 814.078 366.8C810.211 366.8 806.778 366 803.778 364.4C800.845 362.8 798.545 360.733 796.878 358.2V392.6H779.778V310.2H796.878V318.1ZM821.278 338C821.278 333.733 820.078 330.4 817.678 328C815.345 325.533 812.445 324.3 808.978 324.3C805.578 324.3 802.678 325.533 800.278 328C797.945 330.467 796.778 333.833 796.778 338.1C796.778 342.367 797.945 345.733 800.278 348.2C802.678 350.667 805.578 351.9 808.978 351.9C812.378 351.9 815.278 350.667 817.678 348.2C820.078 345.667 821.278 342.267 821.278 338Z" fill="#5519FC"/>
<defs>
<linearGradient id="paint0_linear" x1="74.98" y1="437.019" x2="437.019" y2="74.98" gradientUnits="userSpaceOnUse">
<stop stop-color="#560DFF"/>
<stop offset="1" stop-color="#73ECFF"/>
</linearGradient>
<radialGradient id="paint1_radial" cx="0" cy="0" r="1" gradientUnits="userSpaceOnUse" gradientTransform="translate(306.704 242.309) scale(310.071)">
<stop stop-color="#6B23EA"/>
<stop offset="0.0449" stop-color="#6538E6" stop-opacity="0.955"/>
<stop offset="0.141" stop-color="#5B5FE0" stop-opacity="0.859"/>
<stop offset="0.244" stop-color="#5180DA" stop-opacity="0.756"/>
<stop offset="0.3536" stop-color="#4A9CD5" stop-opacity="0.646"/>
<stop offset="0.4722" stop-color="#44B1D2" stop-opacity="0.528"/>
<stop offset="0.6041" stop-color="#40C0CF" stop-opacity="0.396"/>
<stop offset="0.7599" stop-color="#3EC8CD" stop-opacity="0.24"/>
<stop offset="1" stop-color="#3DCBCD" stop-opacity="0"/>
</radialGradient>
<linearGradient id="paint2_linear" x1="183.822" y1="435.008" x2="557.092" y2="61.738" gradientUnits="userSpaceOnUse">
<stop stop-color="#389FFF"/>
<stop offset="0.1209" stop-color="#45AFFA"/>
<stop offset="0.5726" stop-color="#73E9E7"/>
<stop offset="0.79" stop-color="#85FFE0"/>
<stop offset="0.8218" stop-color="#90FFE3"/>
<stop offset="0.938" stop-color="#B4FFEC"/>
<stop offset="1" stop-color="#C2FFF0"/>
</linearGradient>
<radialGradient id="paint3_radial" cx="0" cy="0" r="1" gradientUnits="userSpaceOnUse" gradientTransform="translate(286.754 520.318) scale(221.252)">
<stop stop-color="#3DCBCD" stop-opacity="0"/>
<stop offset="0.4052" stop-color="#3EC9CD" stop-opacity="0.405"/>
<stop offset="0.5512" stop-color="#3FC2CE" stop-opacity="0.551"/>
<stop offset="0.6552" stop-color="#43B7D1" stop-opacity="0.655"/>
<stop offset="0.7394" stop-color="#47A6D3" stop-opacity="0.739"/>
<stop offset="0.8115" stop-color="#4D90D7" stop-opacity="0.812"/>
<stop offset="0.8753" stop-color="#5574DC" stop-opacity="0.875"/>
<stop offset="0.933" stop-color="#5E54E2" stop-opacity="0.933"/>
<stop offset="0.9844" stop-color="#6830E8" stop-opacity="0.984"/>
<stop offset="1" stop-color="#6B23EA"/>
</radialGradient>
<linearGradient id="paint4_linear" x1="15.53" y1="541.862" x2="509.445" y2="47.947" gradientUnits="userSpaceOnUse">
<stop stop-color="#389FFF"/>
<stop offset="0.1209" stop-color="#45AFFA"/>
<stop offset="0.5726" stop-color="#73E9E7"/>
<stop offset="0.79" stop-color="#85FFE0"/>
<stop offset="0.8799" stop-color="#9DFFE6"/>
<stop offset="0.9973" stop-color="#C2FFF0"/>
</linearGradient>
<linearGradient id="paint5_linear" x1="262.859" y1="198.748" x2="378.17" y2="83.4359" gradientUnits="userSpaceOnUse">
<stop stop-color="#560DFF"/>
<stop offset="1" stop-color="#73ECFF"/>
</linearGradient>
<linearGradient id="paint6_linear" x1="291.117" y1="170.493" x2="370.136" y2="91.4729" gradientUnits="userSpaceOnUse">
<stop stop-color="#560DFF"/>
<stop offset="1" stop-color="#73ECFF"/>
</linearGradient>
<linearGradient id="paint7_linear" x1="125.245" y1="368.399" x2="409.824" y2="83.82" gradientUnits="userSpaceOnUse">
<stop stop-color="#389FFF"/>
<stop offset="0.1209" stop-color="#45AFFA"/>
<stop offset="0.5726" stop-color="#73E9E7"/>
<stop offset="0.79" stop-color="#85FFE0"/>
<stop offset="0.8218" stop-color="#90FFE3"/>
<stop offset="0.938" stop-color="#B4FFEC"/>
<stop offset="1" stop-color="#C2FFF0"/>
</linearGradient>
<radialGradient id="paint8_radial" cx="0" cy="0" r="1" gradientUnits="userSpaceOnUse" gradientTransform="translate(191.128 458.638) scale(205.682)">
<stop stop-color="#3DCBCD" stop-opacity="0"/>
<stop offset="0.4052" stop-color="#3EC9CD" stop-opacity="0.405"/>
<stop offset="0.5512" stop-color="#3FC2CE" stop-opacity="0.551"/>
<stop offset="0.6552" stop-color="#43B7D1" stop-opacity="0.655"/>
<stop offset="0.7394" stop-color="#47A6D3" stop-opacity="0.739"/>
<stop offset="0.8115" stop-color="#4D90D7" stop-opacity="0.812"/>
<stop offset="0.8753" stop-color="#5574DC" stop-opacity="0.875"/>
<stop offset="0.933" stop-color="#5E54E2" stop-opacity="0.933"/>
<stop offset="0.9844" stop-color="#6830E8" stop-opacity="0.984"/>
<stop offset="1" stop-color="#6B23EA"/>
</radialGradient>
<linearGradient id="paint9_linear" x1="126.781" y1="363.75" x2="532.286" y2="-41.755" gradientUnits="userSpaceOnUse">
<stop stop-color="#389FFF"/>
<stop offset="0.1209" stop-color="#45AFFA"/>
<stop offset="0.5726" stop-color="#73E9E7"/>
<stop offset="0.79" stop-color="#85FFE0"/>
<stop offset="0.881" stop-color="#9DFFE6"/>
<stop offset="1" stop-color="#C2FFF0"/>
</linearGradient>
<linearGradient id="paint10_linear" x1="-97.2" y1="600.192" x2="336.154" y2="166.838" gradientUnits="userSpaceOnUse">
<stop stop-color="#389FFF"/>
<stop offset="0.1209" stop-color="#45AFFA"/>
<stop offset="0.5726" stop-color="#73E9E7"/>
<stop offset="0.79" stop-color="#85FFE0"/>
<stop offset="0.881" stop-color="#9DFFE6"/>
<stop offset="1" stop-color="#C2FFF0"/>
</linearGradient>
</defs>
</svg>
